<svg xmlns="http://www.w3.org/2000/svg" width="96" height="96" aria-hidden="true"><path fill-rule="evenodd" d="M74.247 58.236c-.422.22-.753.58-.933 1.022-.267.652-.58 1.293-.878 1.89a2.004 2.004 0 0 0-.155 1.367l2.304 9.48-9.601-.947a1.99 1.99 0 0 0-1.351.358c-.602.425-1.238.814-1.725 1.106a2.005 2.005 0 0 0-.866 1.073l-3.137 9.214-7.561-6.03a2.016 2.016 0 0 0-1.322-.434c-.17.006-.337.017-.504.029a7.801 7.801 0 0 1-1.037 0 13.993 13.993 0 0 0-.503-.03 1.989 1.989 0 0 0-1.322.435l-7.561 6.03-3.138-9.215a1.999 1.999 0 0 0-.865-1.072 27.543 27.543 0 0 1-1.725-1.106 2.004 2.004 0 0 0-1.352-.358l-9.6.951 2.303-9.484a1.994 1.994 0 0 0-.155-1.367 28.187 28.187 0 0 1-.88-1.895 2.007 2.007 0 0 0-.931-1.017l-8.583-4.44 6.987-6.688c.342-.328.557-.767.606-1.24a28.73 28.73 0 0 1 .319-2.098 1.998 1.998 0 0 0-.234-1.352l-4.853-8.435 9.488-1.822c.469-.09.89-.344 1.187-.718.45-.564.935-1.099 1.35-1.547.322-.347.51-.797.53-1.27l.438-9.755 8.926 3.63c.446.182.94.197 1.396.043.57-.195 1.198-.377 1.976-.576a2 2 0 0 0 1.14-.788L48 13.242l5.574 7.937c.275.39.679.67 1.14.788.78.2 1.409.383 1.976.576.456.154.953.14 1.396-.043l8.926-3.629.437 9.755c.022.473.209.922.53 1.27.418.45.905.986 1.35 1.546a2 2 0 0 0 1.189.718l9.489 1.822-4.855 8.436a1.998 1.998 0 0 0-.234 1.354c.12.668.246 1.38.319 2.094a2 2 0 0 0 .607 1.24l6.987 6.69-8.584 4.44ZM86.56 51.83l-7.435-7.117a29.064 29.064 0 0 0-.144-.93l5.164-8.973a3.066 3.066 0 0 0 .13-2.773 3.04 3.04 0 0 0-2.192-1.729L71.979 28.37a31.548 31.548 0 0 0-.566-.646l-.466-10.381a3.029 3.029 0 0 0-4.168-2.692l-9.526 3.873a30.454 30.454 0 0 0-.824-.238l-5.95-8.468A3.018 3.018 0 0 0 48 8.55c-.997 0-1.924.473-2.48 1.265l-5.947 8.467c-.291.08-.564.16-.825.24l-9.523-3.873a3.028 3.028 0 0 0-2.786.261 3.042 3.042 0 0 0-1.386 2.423l-.465 10.389c-.184.204-.375.42-.567.646l-10.106 1.94a3.04 3.04 0 0 0-2.188 1.727 3.058 3.058 0 0 0 .134 2.782l5.158 8.967c-.051.302-.1.61-.144.927l-7.43 7.113a3.053 3.053 0 0 0-.913 2.64 3.06 3.06 0 0 0 1.612 2.27l9.136 4.726c.126.28.255.553.38.815l-2.446 10.077a3.053 3.053 0 0 0 .65 2.719 3.032 3.032 0 0 0 2.592 1.037l10.23-1.01c.249.164.49.32.72.46l3.345 9.828a3.024 3.024 0 0 0 1.992 1.93c.94.29 1.999.085 2.766-.528l8.042-6.413c.299.015.6.015.9 0l8.042 6.412a3.031 3.031 0 0 0 1.887.662 3.034 3.034 0 0 0 2.87-2.062l3.346-9.829c.229-.14.47-.296.719-.46l10.32 1.017a3.03 3.03 0 0 0 2.506-1.046 3.049 3.049 0 0 0 .65-2.71l-2.45-10.084c.128-.264.256-.536.38-.816l9.145-4.73a3.07 3.07 0 0 0 1.607-2.281 3.056 3.056 0 0 0-.912-2.62ZM48 66.819c-9.881 0-17.92-8.12-17.92-18.1 0-9.98 8.039-18.099 17.92-18.099 9.88 0 17.92 8.12 17.92 18.1 0 9.98-8.04 18.099-17.92 18.099Zm0-40.199c-12.087 0-21.92 9.915-21.92 22.1 0 12.186 9.833 22.099 21.92 22.099 12.087 0 21.92-9.913 21.92-22.1 0-12.184-9.833-22.099-21.92-22.099Z" clip-rule="evenodd"/></svg>